<?xml version="1.0" encoding="UTF-8" standalone="no"?><svg xmlns="http://www.w3.org/2000/svg" xmlns:xlink="http://www.w3.org/1999/xlink" fill="#000000" height="24" viewBox="0 0 24 24" width="24"><path d="m20.66 7.26a0 0 0 0 1 0 0c0-.07-.1-.14-.15-.21l-.09-.1a2.5 2.5 0 0 0 -.86-.68l-6.4-3a2.7 2.7 0 0 0 -2.26 0l-6.4 3a2.6 2.6 0 0 0 -.86.68l-.12.05a1 1 0 0 0 -.15.2 0 0 0 0 1 0 0 2.39 2.39 0 0 0 -.37 1.26v7.06a2.49 2.49 0 0 0 1.46 2.26l6.4 3a2.7 2.7 0 0 0 2.27 0l6.4-3a2.49 2.49 0 0 0 1.47-2.24v-7.08a2.39 2.39 0 0 0 -.34-1.2zm-8.95-2.2a.73.73 0 0 1 .58 0l5.33 2.48-5.62 2.61-5.62-2.61zm-6.41 10.94a.47.47 0 0 1 -.3-.43v-6.47l6 2.79v6.72zm13.39 0-5.69 2.61v-6.72l6-2.79v6.44a.48.48 0 0 1 -.31.46z" fill="#26567b"/></svg>